<svg width="25" height="24" viewBox="0 0 25 24" fill="none" xmlns="http://www.w3.org/2000/svg">
<path d="M20.653 8.586C20.6055 8.4775 20.5392 8.37829 20.457 8.293L14.457 2.293C14.3717 2.21083 14.2725 2.14447 14.164 2.097C14.134 2.083 14.102 2.075 14.07 2.064C13.9863 2.03563 13.8992 2.01848 13.811 2.013C13.79 2.011 13.771 2 13.75 2H6.75C5.647 2 4.75 2.897 4.75 4V20C4.75 21.103 5.647 22 6.75 22H18.75C19.853 22 20.75 21.103 20.75 20V9C20.75 8.979 20.739 8.96 20.737 8.938C20.7315 8.84979 20.7144 8.7627 20.686 8.679C20.6767 8.647 20.6657 8.616 20.653 8.586ZM17.336 8H14.75V5.414L17.336 8ZM6.75 20V4H12.75V9C12.75 9.26522 12.8554 9.51957 13.0429 9.70711C13.2304 9.89464 13.4848 10 13.75 10H18.75L18.752 20H6.75Z" fill="white"/>
<path d="M8.75 12H16.75V14H8.75V12ZM8.75 16H16.75V18H8.75V16ZM8.75 8H10.75V10H8.75V8Z" fill="white"/>
</svg>
