<svg width="25" height="24" viewBox="0 0 25 24" fill="none" xmlns="http://www.w3.org/2000/svg">
<path fill-rule="evenodd" clip-rule="evenodd" d="M9.75 13C10.2804 13 10.7891 13.2107 11.1642 13.5858C11.5393 13.9609 11.75 14.4696 11.75 15V19C11.75 19.5304 11.5393 20.0391 11.1642 20.4142C10.7891 20.7893 10.2804 21 9.75 21H5.75C5.21957 21 4.71086 20.7893 4.33579 20.4142C3.96071 20.0391 3.75 19.5304 3.75 19V15C3.75 14.4696 3.96071 13.9609 4.33579 13.5858C4.71086 13.2107 5.21957 13 5.75 13H9.75ZM19.75 13C20.2546 12.9998 20.7406 13.1904 21.1105 13.5335C21.4805 13.8766 21.7072 14.3468 21.745 14.85L21.75 15V19C21.7502 19.5046 21.5596 19.9906 21.2165 20.3605C20.8734 20.7305 20.4032 20.9572 19.9 20.995L19.75 21H15.75C15.2454 21.0002 14.7594 20.8096 14.3895 20.4665C14.0195 20.1234 13.7928 19.6532 13.755 19.15L13.75 19V15C13.7498 14.4954 13.9404 14.0094 14.2835 13.6395C14.6266 13.2695 15.0968 13.0428 15.6 13.005L15.75 13H19.75ZM9.75 15H5.75V19H9.75V15ZM19.75 15H15.75V19H19.75V15ZM19.75 3C20.2546 2.99984 20.7406 3.19041 21.1105 3.5335C21.4805 3.87659 21.7072 4.34684 21.745 4.85L21.75 5V9C21.7502 9.50458 21.5596 9.99057 21.2165 10.3605C20.8734 10.7305 20.4032 10.9572 19.9 10.995L19.75 11H15.75C15.2454 11.0002 14.7594 10.8096 14.3895 10.4665C14.0195 10.1234 13.7928 9.65315 13.755 9.15L13.75 9V5C13.7498 4.49542 13.9404 4.00943 14.2835 3.63945C14.6266 3.26947 15.0968 3.04284 15.6 3.005L15.75 3H19.75ZM9.75 3C10.2546 2.99984 10.7406 3.19041 11.1105 3.5335C11.4805 3.87659 11.7072 4.34684 11.745 4.85L11.75 5V9C11.7502 9.50458 11.5596 9.99057 11.2165 10.3605C10.8734 10.7305 10.4032 10.9572 9.9 10.995L9.75 11H5.75C5.24542 11.0002 4.75943 10.8096 4.38945 10.4665C4.01947 10.1234 3.79284 9.65315 3.755 9.15L3.75 9V5C3.74984 4.49542 3.94041 4.00943 4.2835 3.63945C4.62659 3.26947 5.09684 3.04284 5.6 3.005L5.75 3H9.75ZM19.75 5H15.75V9H19.75V5ZM9.75 5H5.75V9H9.75V5Z" fill="white"/>
</svg>
