<svg width="50" height="50" viewBox="0 0 50 50" fill="none" xmlns="http://www.w3.org/2000/svg">
<path d="M14.4167 14.4917L11.3542 11.4021M30.7479 14.4917L33.8104 11.4021M11.3521 34.0688L14.4146 30.9771M22.5812 10.3729V6.25M10.3313 22.7354H6.25M35.1562 35.075L43.1021 31.9375C43.2938 31.8608 43.4581 31.7284 43.5739 31.5574C43.6896 31.3864 43.7515 31.1846 43.7515 30.9781C43.7515 30.7716 43.6896 30.5699 43.5739 30.3989C43.4581 30.2279 43.2938 30.0955 43.1021 30.0187L24.0083 22.4875C23.8225 22.4156 23.6196 22.3994 23.4247 22.4409C23.2298 22.4825 23.0512 22.58 22.9108 22.7215C22.7704 22.863 22.6743 23.0423 22.6343 23.2376C22.5943 23.4328 22.612 23.6355 22.6854 23.8208L30.1479 43.0937C30.4854 43.9687 31.7104 43.9687 32.0479 43.0937L35.1562 35.075Z" stroke="#64748A" stroke-width="3" stroke-linecap="round" stroke-linejoin="round"/>
</svg>
