<svg width="24" height="24" viewBox="0 0 24 24" fill="none" xmlns="http://www.w3.org/2000/svg">
<path d="M12 5.25L4.5 12.75L5.5575 13.8075L11.25 8.1225V21H1.5V22.5H11.25C11.6478 22.5 12.0294 22.342 12.3107 22.0607C12.592 21.7794 12.75 21.3978 12.75 21V8.1225L18.4425 13.8075L19.5 12.75L12 5.25Z" fill="#121C2D"/>
<path d="M4.5 6V3H19.5V6H21V3C21 2.60218 20.842 2.22064 20.5607 1.93934C20.2794 1.65804 19.8978 1.5 19.5 1.5H4.5C4.10218 1.5 3.72064 1.65804 3.43934 1.93934C3.15804 2.22064 3 2.60218 3 3V6H4.5Z" fill="#121C2D"/>
</svg>
