<svg width="24" height="24" viewBox="0 0 24 24" fill="none" xmlns="http://www.w3.org/2000/svg">
<rect width="24" height="24" rx="12" fill="#DC8B18"/>
<path d="M12.0007 18.6666C15.6827 18.6666 18.6673 15.6819 18.6673 11.9999C18.6673 11.6913 18.2047 11.6399 18.0453 11.9046C17.7055 12.4675 17.242 12.9457 16.69 13.3029C16.138 13.6601 15.5119 13.8871 14.8592 13.9665C14.2065 14.046 13.5443 13.9758 12.9227 13.7614C12.3011 13.547 11.7364 13.194 11.2715 12.7291C10.8066 12.2641 10.4535 11.6995 10.2391 11.0779C10.0247 10.4563 9.9546 9.79407 10.034 9.14136C10.1135 8.48866 10.3404 7.86259 10.6977 7.31058C11.0549 6.75856 11.5331 6.29509 12.096 5.95525C12.3607 5.79525 12.3093 5.33325 12.0007 5.33325C8.31865 5.33325 5.33398 8.31792 5.33398 11.9999C5.33398 15.6819 8.31865 18.6666 12.0007 18.6666Z" fill="white"/>
</svg>
