<svg width="24" height="24" viewBox="0 0 24 24" fill="none" xmlns="http://www.w3.org/2000/svg">
<rect width="24" height="24" rx="12" fill="#C026D3"/>
<path d="M11.9987 18.6668C15.6807 18.6668 18.6654 15.6822 18.6654 12.0002C18.6654 11.6915 18.2027 11.6402 18.0434 11.9048C17.7035 12.4677 17.2401 12.9459 16.688 13.3031C16.136 13.6604 15.51 13.8873 14.8573 13.9668C14.2045 14.0462 13.5423 13.9761 12.9207 13.7617C12.2991 13.5473 11.7345 13.1942 11.2696 12.7293C10.8046 12.2644 10.4516 11.6997 10.2372 11.0781C10.0228 10.4565 9.95265 9.79431 10.0321 9.14161C10.1115 8.4889 10.3385 7.86283 10.6957 7.31082C11.053 6.75881 11.5311 6.29533 12.094 5.9555C12.3587 5.7955 12.3074 5.3335 11.9987 5.3335C8.3167 5.3335 5.33203 8.31816 5.33203 12.0002C5.33203 15.6822 8.3167 18.6668 11.9987 18.6668Z" fill="white"/>
</svg>
