<svg width="28" height="28" viewBox="0 0 28 28" fill="none" xmlns="http://www.w3.org/2000/svg">
<rect width="28" height="28" rx="12" fill="#DC8B18"/>
<path d="M14.0013 22.3332C18.6038 22.3332 22.3346 18.6023 22.3346 13.9998C22.3346 13.614 21.7563 13.5498 21.5571 13.8807C21.1323 14.5843 20.553 15.182 19.863 15.6286C19.173 16.0751 18.3904 16.3588 17.5745 16.4581C16.7586 16.5574 15.9308 16.4697 15.1538 16.2017C14.3769 15.9337 13.671 15.4924 13.0899 14.9113C12.5087 14.3301 12.0674 13.6243 11.7994 12.8473C11.5314 12.0703 11.4437 11.2425 11.543 10.4266C11.6424 9.61076 11.926 8.82817 12.3726 8.13816C12.8191 7.44815 13.4169 6.8688 14.1205 6.444C14.4513 6.244 14.3871 5.6665 14.0013 5.6665C9.3988 5.6665 5.66797 9.39734 5.66797 13.9998C5.66797 18.6023 9.3988 22.3332 14.0013 22.3332Z" fill="white"/>
</svg>
