<svg width="24" height="24" viewBox="0 0 24 24" fill="none" xmlns="http://www.w3.org/2000/svg">
<path d="M12 14.4009C11.0617 14.4029 10.1439 14.1263 9.36283 13.6062C8.58181 13.0861 7.97273 12.346 7.61273 11.4794C7.25273 10.6129 7.15802 9.65902 7.34059 8.73862C7.52317 7.81822 7.97481 6.97272 8.63832 6.30921C9.30182 5.64571 10.1473 5.19407 11.0677 5.01149C11.9881 4.82892 12.942 4.92363 13.8085 5.28363C14.6751 5.64362 15.4152 6.25271 15.9353 7.03373C16.4554 7.81475 16.732 8.73256 16.73 9.67089C16.73 10.9254 16.2317 12.1285 15.3446 13.0155C14.4576 13.9026 13.2545 14.4009 12 14.4009ZM12 6.40089C11.3588 6.39891 10.7314 6.58725 10.1972 6.94206C9.6631 7.29687 9.24626 7.8022 8.9995 8.39405C8.75274 8.98591 8.68715 9.63768 8.81103 10.2668C8.93492 10.896 9.24271 11.4742 9.69543 11.9284C10.1481 12.3825 10.7254 12.6921 11.3542 12.8179C11.983 12.9437 12.6349 12.8801 13.2276 12.6352C13.8202 12.3903 14.3268 11.975 14.6833 11.442C15.0397 10.9089 15.23 10.2821 15.23 9.64089C15.2221 8.78853 14.8786 7.97361 14.274 7.37275C13.6694 6.77188 12.8524 6.43348 12 6.43089V6.40089Z" fill="#C026D3"/>
<path d="M19.0019 19.2804C18.8338 19.2798 18.671 19.2221 18.5401 19.1167C18.4093 19.0113 18.3182 18.8645 18.2819 18.7004C17.9834 17.4727 17.2807 16.3811 16.2867 15.6012C15.2927 14.8212 14.0653 14.3983 12.8019 14.4004H11.2019C9.94014 14.4006 8.71503 14.8245 7.72311 15.6043C6.73118 16.384 6.02993 17.4744 5.73186 18.7004C5.70823 18.7963 5.66594 18.8865 5.60741 18.9661C5.54889 19.0456 5.47527 19.1128 5.39077 19.1639C5.30627 19.2149 5.21254 19.2489 5.11492 19.2637C5.01731 19.2786 4.91773 19.274 4.82186 19.2504C4.726 19.2268 4.63573 19.1845 4.55621 19.126C4.47669 19.0674 4.40947 18.9938 4.3584 18.9093C4.30733 18.8248 4.2734 18.7311 4.25855 18.6335C4.2437 18.5359 4.24823 18.4363 4.27186 18.3404C4.65053 16.7884 5.53947 15.4085 6.79612 14.422C8.05276 13.4355 9.60429 12.8997 11.2019 12.9004H12.7919C14.3917 12.8967 15.946 13.4327 17.2036 14.4216C18.4611 15.4106 19.3483 16.7948 19.7219 18.3504C19.7674 18.5439 19.7353 18.7475 19.6325 18.9176C19.5297 19.0877 19.3643 19.2108 19.1719 19.2604L19.0019 19.2804Z" fill="#C026D3"/>
<path d="M12.0014 22.3104C9.96229 22.3104 7.96895 21.7058 6.27348 20.5729C4.57801 19.44 3.25655 17.8298 2.47621 15.9459C1.69587 14.062 1.4917 11.989 1.88951 9.98905C2.28733 7.98911 3.26926 6.15204 4.71114 4.71016C6.15302 3.26828 7.99009 2.28635 9.99003 1.88854C11.99 1.49072 14.063 1.6949 15.9469 2.47524C17.8308 3.25558 19.441 4.57703 20.5739 6.27251C21.7067 7.96798 22.3114 9.96131 22.3114 12.0004C22.3088 14.734 21.2217 17.3549 19.2888 19.2878C17.3558 21.2207 14.735 22.3078 12.0014 22.3104ZM12.0014 3.19043C10.259 3.19043 8.55563 3.70713 7.10684 4.67519C5.65804 5.64324 4.52884 7.01918 3.86203 8.62899C3.19522 10.2388 3.02076 12.0102 3.36069 13.7192C3.70063 15.4282 4.5397 16.9979 5.7718 18.23C7.0039 19.4621 8.57369 20.3012 10.2827 20.6412C11.9916 20.9811 13.763 20.8066 15.3729 20.1398C16.9827 19.473 18.3586 18.3438 19.3267 16.895C20.2947 15.4462 20.8114 13.7429 20.8114 12.0004C20.8088 9.66469 19.8797 7.42537 18.2281 5.77375C16.5765 4.12212 14.3372 3.19308 12.0014 3.19043Z" fill="#C026D3"/>
</svg>
