<svg width="56" height="56" viewBox="0 0 56 56" fill="none" xmlns="http://www.w3.org/2000/svg">
<path d="M52.5 40.9181L49 39.1681V35C48.9959 32.5209 48.1154 30.1231 46.5142 28.2305C44.913 26.3378 42.6942 25.0723 40.25 24.6575V21H36.75V24.6575C34.3058 25.0723 32.087 26.3378 30.4858 28.2305C28.8846 30.1231 28.0041 32.5209 28 35V39.1681L24.5 40.9181V49H35V52.5H42V49H52.5V40.9181ZM49 45.5H28V43.0819L31.5 41.3319V35C31.5 33.1435 32.2375 31.363 33.5503 30.0503C34.863 28.7375 36.6435 28 38.5 28C40.3565 28 42.137 28.7375 43.4497 30.0503C44.7625 31.363 45.5 33.1435 45.5 35V41.3319L49 43.0819V45.5Z" fill="#64748A"/>
<path d="M49 10.5C49 9.57174 48.6312 8.6815 47.9749 8.02513C47.3185 7.36875 46.4283 7 45.5 7H38.5V3.5H35V7H21V3.5H17.5V7H10.5C9.57174 7 8.6815 7.36875 8.02513 8.02513C7.36875 8.6815 7 9.57174 7 10.5V45.5C7 46.4283 7.36875 47.3185 8.02513 47.9749C8.6815 48.6312 9.57174 49 10.5 49H17.5V45.5H10.5V10.5H17.5V14H21V10.5H35V14H38.5V10.5H45.5V21H49V10.5Z" fill="#64748A"/>
</svg>
