<svg width="24" height="24" viewBox="0 0 24 24" fill="none" xmlns="http://www.w3.org/2000/svg">
<rect width="24" height="24" rx="12" fill="#C026D3"/>
<path d="M7.33203 12.0002C7.33203 11.8234 7.26179 11.6538 7.13677 11.5288C7.01174 11.4037 6.84218 11.3335 6.66536 11.3335H5.9987C5.82189 11.3335 5.65232 11.4037 5.52729 11.5288C5.40227 11.6538 5.33203 11.8234 5.33203 12.0002C5.33203 12.177 5.40227 12.3465 5.52729 12.4716C5.65232 12.5966 5.82189 12.6668 5.9987 12.6668H6.66536C6.84218 12.6668 7.01174 12.5966 7.13677 12.4716C7.26179 12.3465 7.33203 12.177 7.33203 12.0002ZM7.7587 15.3335L7.28536 15.8068C7.1612 15.9317 7.0915 16.1007 7.0915 16.2768C7.0915 16.453 7.1612 16.6219 7.28536 16.7468C7.41027 16.871 7.57924 16.9407 7.75536 16.9407C7.93149 16.9407 8.10046 16.871 8.22536 16.7468L8.6987 16.2735C8.80792 16.146 8.86499 15.9819 8.85851 15.8141C8.85202 15.6463 8.78247 15.4872 8.66374 15.3685C8.54501 15.2497 8.38585 15.1802 8.21807 15.1737C8.05028 15.1672 7.88623 15.2243 7.7587 15.3335ZM11.9987 7.3335C12.1755 7.3335 12.3451 7.26326 12.4701 7.13823C12.5951 7.01321 12.6654 6.84364 12.6654 6.66683V6.00016C12.6654 5.82335 12.5951 5.65378 12.4701 5.52876C12.3451 5.40373 12.1755 5.3335 11.9987 5.3335C11.8219 5.3335 11.6523 5.40373 11.5273 5.52876C11.4023 5.65378 11.332 5.82335 11.332 6.00016V6.66683C11.332 6.84364 11.4023 7.01321 11.5273 7.13823C11.6523 7.26326 11.8219 7.3335 11.9987 7.3335ZM15.772 8.8935C15.9469 8.89276 16.1145 8.82333 16.2387 8.70016L16.712 8.22683C16.7818 8.16706 16.8385 8.09352 16.8785 8.01081C16.9185 7.9281 16.941 7.83801 16.9446 7.7462C16.9481 7.65439 16.9326 7.56283 16.8991 7.47728C16.8656 7.39173 16.8148 7.31403 16.7498 7.24906C16.6848 7.18409 16.6071 7.13325 16.5216 7.09974C16.436 7.06622 16.3445 7.05075 16.2527 7.0543C16.1609 7.05784 16.0708 7.08033 15.9881 7.12035C15.9053 7.16036 15.8318 7.21704 15.772 7.28683L15.332 7.76016C15.2079 7.88507 15.1382 8.05404 15.1382 8.23016C15.1382 8.40629 15.2079 8.57525 15.332 8.70016C15.4496 8.81707 15.6064 8.886 15.772 8.8935ZM7.77203 8.70016C7.8962 8.82333 8.0638 8.89276 8.2387 8.8935C8.32644 8.894 8.41341 8.87719 8.49464 8.84401C8.57586 8.81083 8.64974 8.76195 8.71203 8.70016C8.8362 8.57525 8.90589 8.40629 8.90589 8.23016C8.90589 8.05404 8.8362 7.88507 8.71203 7.76016L8.2387 7.28683C8.11405 7.16041 7.94428 7.08869 7.76675 7.08744C7.58921 7.08618 7.41845 7.15551 7.29203 7.28016C7.16561 7.40481 7.09389 7.57458 7.09264 7.75212C7.09139 7.92965 7.16071 8.10041 7.28536 8.22683L7.77203 8.70016ZM17.9987 11.3335H17.332C17.1552 11.3335 16.9857 11.4037 16.8606 11.5288C16.7356 11.6538 16.6654 11.8234 16.6654 12.0002C16.6654 12.177 16.7356 12.3465 16.8606 12.4716C16.9857 12.5966 17.1552 12.6668 17.332 12.6668H17.9987C18.1755 12.6668 18.3451 12.5966 18.4701 12.4716C18.5951 12.3465 18.6654 12.177 18.6654 12.0002C18.6654 11.8234 18.5951 11.6538 18.4701 11.5288C18.3451 11.4037 18.1755 11.3335 17.9987 11.3335ZM16.2387 15.3335C16.112 15.263 15.9659 15.2358 15.8223 15.2559C15.6788 15.2759 15.5457 15.3422 15.4432 15.4447C15.3407 15.5472 15.2745 15.6803 15.2544 15.8238C15.2343 15.9673 15.2616 16.1135 15.332 16.2402L15.8054 16.7135C15.9303 16.8377 16.0992 16.9074 16.2754 16.9074C16.4515 16.9074 16.6205 16.8377 16.7454 16.7135C16.8695 16.5886 16.9392 16.4196 16.9392 16.2435C16.9392 16.0674 16.8695 15.8984 16.7454 15.7735L16.2387 15.3335ZM11.9987 8.3335C11.2735 8.3335 10.5646 8.54854 9.96161 8.95144C9.35863 9.35434 8.88866 9.92699 8.61114 10.597C8.33362 11.267 8.26101 12.0042 8.40249 12.7155C8.54396 13.4268 8.89318 14.0801 9.40597 14.5929C9.91877 15.1057 10.5721 15.4549 11.2834 15.5964C11.9946 15.7379 12.7319 15.6652 13.4019 15.3877C14.0719 15.1102 14.6445 14.6402 15.0474 14.0373C15.4503 13.4343 15.6654 12.7254 15.6654 12.0002C15.6636 11.0282 15.2767 10.0966 14.5895 9.40938C13.9022 8.72213 12.9706 8.33526 11.9987 8.3335ZM11.9987 14.3335C11.5372 14.3335 11.0861 14.1966 10.7024 13.9403C10.3187 13.6839 10.0196 13.3195 9.84298 12.8931C9.66637 12.4667 9.62017 11.9976 9.7102 11.545C9.80023 11.0923 10.0225 10.6766 10.3488 10.3502C10.6751 10.0239 11.0909 9.8017 11.5435 9.71166C11.9961 9.62163 12.4653 9.66784 12.8916 9.84444C13.318 10.021 13.6824 10.3201 13.9388 10.7038C14.1952 11.0875 14.332 11.5387 14.332 12.0002C14.332 12.619 14.0862 13.2125 13.6486 13.6501C13.211 14.0877 12.6175 14.3335 11.9987 14.3335ZM11.9987 16.6668C11.8219 16.6668 11.6523 16.7371 11.5273 16.8621C11.4023 16.9871 11.332 17.1567 11.332 17.3335V18.0002C11.332 18.177 11.4023 18.3465 11.5273 18.4716C11.6523 18.5966 11.8219 18.6668 11.9987 18.6668C12.1755 18.6668 12.3451 18.5966 12.4701 18.4716C12.5951 18.3465 12.6654 18.177 12.6654 18.0002V17.3335C12.6654 17.1567 12.5951 16.9871 12.4701 16.8621C12.3451 16.7371 12.1755 16.6668 11.9987 16.6668Z" fill="white"/>
</svg>
