<svg width="24" height="24" viewBox="0 0 24 24" fill="none" xmlns="http://www.w3.org/2000/svg">
<rect width="24" height="24" rx="12" fill="#DC8B18"/>
<path d="M7.33398 11.9999C7.33398 11.8231 7.26375 11.6535 7.13872 11.5285C7.0137 11.4035 6.84413 11.3333 6.66732 11.3333H6.00065C5.82384 11.3333 5.65427 11.4035 5.52925 11.5285C5.40422 11.6535 5.33398 11.8231 5.33398 11.9999C5.33398 12.1767 5.40422 12.3463 5.52925 12.4713C5.65427 12.5963 5.82384 12.6666 6.00065 12.6666H6.66732C6.84413 12.6666 7.0137 12.5963 7.13872 12.4713C7.26375 12.3463 7.33398 12.1767 7.33398 11.9999ZM7.76065 15.3333L7.28732 15.8066C7.16315 15.9315 7.09346 16.1005 7.09346 16.2766C7.09346 16.4527 7.16315 16.6217 7.28732 16.7466C7.41223 16.8708 7.58119 16.9404 7.75732 16.9404C7.93344 16.9404 8.10241 16.8708 8.22732 16.7466L8.70065 16.2733C8.80987 16.1457 8.86694 15.9817 8.86046 15.8139C8.85398 15.6461 8.78442 15.4869 8.66569 15.3682C8.54696 15.2495 8.3878 15.1799 8.22002 15.1734C8.05224 15.167 7.88819 15.224 7.76065 15.3333ZM12.0007 7.33325C12.1775 7.33325 12.347 7.26301 12.4721 7.13799C12.5971 7.01297 12.6673 6.8434 12.6673 6.66659V5.99992C12.6673 5.82311 12.5971 5.65354 12.4721 5.52851C12.347 5.40349 12.1775 5.33325 12.0007 5.33325C11.8238 5.33325 11.6543 5.40349 11.5292 5.52851C11.4042 5.65354 11.334 5.82311 11.334 5.99992V6.66659C11.334 6.8434 11.4042 7.01297 11.5292 7.13799C11.6543 7.26301 11.8238 7.33325 12.0007 7.33325ZM15.774 8.89325C15.9489 8.89252 16.1165 8.82308 16.2407 8.69992L16.714 8.22659C16.7838 8.16682 16.8405 8.09328 16.8805 8.01057C16.9205 7.92786 16.943 7.83777 16.9465 7.74595C16.9501 7.65414 16.9346 7.56259 16.9011 7.47704C16.8676 7.39149 16.8167 7.31379 16.7518 7.24882C16.6868 7.18385 16.6091 7.13301 16.5235 7.09949C16.438 7.06598 16.3464 7.05051 16.2546 7.05405C16.1628 7.0576 16.0727 7.08009 15.99 7.1201C15.9073 7.16012 15.8337 7.2168 15.774 7.28659L15.334 7.75992C15.2098 7.88483 15.1401 8.05379 15.1401 8.22992C15.1401 8.40604 15.2098 8.57501 15.334 8.69992C15.4515 8.81683 15.6084 8.88575 15.774 8.89325ZM7.77398 8.69992C7.89816 8.82308 8.06576 8.89252 8.24065 8.89325C8.32839 8.89376 8.41536 8.87694 8.49659 8.84377C8.57781 8.81059 8.65169 8.76171 8.71398 8.69992C8.83815 8.57501 8.90785 8.40604 8.90785 8.22992C8.90785 8.05379 8.83815 7.88483 8.71398 7.75992L8.24065 7.28659C8.116 7.16017 7.94623 7.08844 7.7687 7.08719C7.59116 7.08594 7.4204 7.15527 7.29398 7.27992C7.16756 7.40457 7.09584 7.57434 7.09459 7.75187C7.09334 7.92941 7.16267 8.10017 7.28732 8.22659L7.77398 8.69992ZM18.0007 11.3333H17.334C17.1572 11.3333 16.9876 11.4035 16.8626 11.5285C16.7376 11.6535 16.6673 11.8231 16.6673 11.9999C16.6673 12.1767 16.7376 12.3463 16.8626 12.4713C16.9876 12.5963 17.1572 12.6666 17.334 12.6666H18.0007C18.1775 12.6666 18.347 12.5963 18.4721 12.4713C18.5971 12.3463 18.6673 12.1767 18.6673 11.9999C18.6673 11.8231 18.5971 11.6535 18.4721 11.5285C18.347 11.4035 18.1775 11.3333 18.0007 11.3333ZM16.2407 15.3333C16.114 15.2628 15.9678 15.2355 15.8243 15.2556C15.6808 15.2757 15.5477 15.342 15.4452 15.4445C15.3427 15.5469 15.2764 15.68 15.2563 15.8236C15.2363 15.9671 15.2635 16.1133 15.334 16.2399L15.8073 16.7133C15.9322 16.8374 16.1012 16.9071 16.2773 16.9071C16.4534 16.9071 16.6224 16.8374 16.7473 16.7133C16.8715 16.5883 16.9412 16.4194 16.9412 16.2433C16.9412 16.0671 16.8715 15.8982 16.7473 15.7733L16.2407 15.3333ZM12.0007 8.33325C11.2755 8.33325 10.5665 8.5483 9.96356 8.9512C9.36058 9.3541 8.89061 9.92675 8.61309 10.5967C8.33557 11.2667 8.26296 12.004 8.40444 12.7153C8.54592 13.4265 8.89513 14.0799 9.40793 14.5926C9.92072 15.1054 10.5741 15.4547 11.2853 15.5961C11.9966 15.7376 12.7338 15.665 13.4038 15.3875C14.0738 15.11 14.6465 14.64 15.0494 14.037C15.4523 13.434 15.6673 12.7251 15.6673 11.9999C15.6656 11.028 15.2787 10.0964 14.5914 9.40914C13.9042 8.72189 12.9726 8.33501 12.0007 8.33325ZM12.0007 14.3333C11.5392 14.3333 11.088 14.1964 10.7043 13.94C10.3206 13.6836 10.0215 13.3192 9.84493 12.8928C9.66833 12.4665 9.62212 11.9973 9.71215 11.5447C9.80218 11.0921 10.0244 10.6763 10.3507 10.35C10.6771 10.0237 11.0928 9.80145 11.5454 9.71142C11.9981 9.62139 12.4672 9.6676 12.8936 9.8442C13.3199 10.0208 13.6844 10.3199 13.9407 10.7036C14.1971 11.0873 14.334 11.5384 14.334 11.9999C14.334 12.6188 14.0882 13.2122 13.6506 13.6498C13.213 14.0874 12.6195 14.3333 12.0007 14.3333ZM12.0007 16.6666C11.8238 16.6666 11.6543 16.7368 11.5292 16.8618C11.4042 16.9869 11.334 17.1564 11.334 17.3333V17.9999C11.334 18.1767 11.4042 18.3463 11.5292 18.4713C11.6543 18.5963 11.8238 18.6666 12.0007 18.6666C12.1775 18.6666 12.347 18.5963 12.4721 18.4713C12.5971 18.3463 12.6673 18.1767 12.6673 17.9999V17.3333C12.6673 17.1564 12.5971 16.9869 12.4721 16.8618C12.347 16.7368 12.1775 16.6666 12.0007 16.6666Z" fill="white"/>
</svg>
