<svg width="28" height="28" viewBox="0 0 28 28" fill="none" xmlns="http://www.w3.org/2000/svg">
<rect width="28" height="28" rx="12" fill="#DC8B18"/>
<path d="M8.16797 13.9998C8.16797 13.7788 8.08017 13.5669 7.92389 13.4106C7.76761 13.2543 7.55565 13.1665 7.33464 13.1665H6.5013C6.28029 13.1665 6.06833 13.2543 5.91205 13.4106C5.75577 13.5669 5.66797 13.7788 5.66797 13.9998C5.66797 14.2209 5.75577 14.4328 5.91205 14.5891C6.06833 14.7454 6.28029 14.8332 6.5013 14.8332H7.33464C7.55565 14.8332 7.76761 14.7454 7.92389 14.5891C8.08017 14.4328 8.16797 14.2209 8.16797 13.9998ZM8.7013 18.1665L8.10964 18.7582C7.95443 18.9143 7.86731 19.1255 7.86731 19.3457C7.86731 19.5658 7.95443 19.777 8.10964 19.9332C8.26577 20.0884 8.47698 20.1755 8.69714 20.1755C8.91729 20.1755 9.1285 20.0884 9.28464 19.9332L9.8763 19.3415C10.0128 19.1821 10.0842 18.977 10.0761 18.7673C10.068 18.5576 9.98102 18.3586 9.8326 18.2102C9.68419 18.0618 9.48524 17.9748 9.27551 17.9667C9.06578 17.9586 8.86072 18.03 8.7013 18.1665ZM14.0013 8.1665C14.2223 8.1665 14.4343 8.07871 14.5906 7.92243C14.7468 7.76615 14.8346 7.55418 14.8346 7.33317V6.49984C14.8346 6.27882 14.7468 6.06686 14.5906 5.91058C14.4343 5.7543 14.2223 5.6665 14.0013 5.6665C13.7803 5.6665 13.5683 5.7543 13.412 5.91058C13.2558 6.06686 13.168 6.27882 13.168 6.49984V7.33317C13.168 7.55418 13.2558 7.76615 13.412 7.92243C13.5683 8.07871 13.7803 8.1665 14.0013 8.1665ZM18.718 10.1165C18.9366 10.1156 19.1461 10.0288 19.3013 9.87484L19.893 9.28317C19.9802 9.20846 20.0511 9.11653 20.1011 9.01315C20.1511 8.90976 20.1792 8.79715 20.1836 8.68238C20.1881 8.56762 20.1687 8.45317 20.1268 8.34624C20.0849 8.2393 20.0214 8.14217 19.9402 8.06096C19.859 7.97975 19.7618 7.9162 19.6549 7.87431C19.548 7.83241 19.4335 7.81307 19.3188 7.81751C19.204 7.82194 19.0914 7.85005 18.988 7.90007C18.8846 7.95009 18.7927 8.02094 18.718 8.10817L18.168 8.69984C18.0128 8.85597 17.9256 9.06718 17.9256 9.28734C17.9256 9.50749 18.0128 9.7187 18.168 9.87484C18.3149 10.021 18.511 10.1071 18.718 10.1165ZM8.71797 9.87484C8.87319 10.0288 9.08269 10.1156 9.3013 10.1165C9.41097 10.1171 9.51969 10.0961 9.62122 10.0546C9.72276 10.0132 9.8151 9.95207 9.89297 9.87484C10.0482 9.7187 10.1353 9.50749 10.1353 9.28734C10.1353 9.06718 10.0482 8.85597 9.89297 8.69984L9.3013 8.10817C9.14549 7.95015 8.93328 7.86049 8.71136 7.85893C8.48944 7.85736 8.27599 7.94402 8.11797 8.09984C7.95994 8.25565 7.87029 8.46786 7.86873 8.68978C7.86716 8.9117 7.95382 9.12515 8.10964 9.28317L8.71797 9.87484ZM21.5013 13.1665H20.668C20.447 13.1665 20.235 13.2543 20.0787 13.4106C19.9224 13.5669 19.8346 13.7788 19.8346 13.9998C19.8346 14.2209 19.9224 14.4328 20.0787 14.5891C20.235 14.7454 20.447 14.8332 20.668 14.8332H21.5013C21.7223 14.8332 21.9343 14.7454 22.0906 14.5891C22.2468 14.4328 22.3346 14.2209 22.3346 13.9998C22.3346 13.7788 22.2468 13.5669 22.0906 13.4106C21.9343 13.2543 21.7223 13.1665 21.5013 13.1665ZM19.3013 18.1665C19.143 18.0784 18.9603 18.0444 18.7809 18.0695C18.6014 18.0945 18.4351 18.1774 18.307 18.3055C18.1789 18.4336 18.096 18.6 18.0709 18.7794C18.0458 18.9588 18.0799 19.1415 18.168 19.2998L18.7596 19.8915C18.9158 20.0467 19.127 20.1338 19.3471 20.1338C19.5673 20.1338 19.7785 20.0467 19.9346 19.8915C20.0898 19.7354 20.177 19.5242 20.177 19.304C20.177 19.0838 20.0898 18.8726 19.9346 18.7165L19.3013 18.1665ZM14.0013 9.4165C13.0948 9.4165 12.2087 9.68531 11.4549 10.1889C10.7012 10.6926 10.1138 11.4084 9.76685 12.2459C9.41995 13.0834 9.32919 14.0049 9.50604 14.894C9.68289 15.7831 10.1194 16.5998 10.7604 17.2407C11.4014 17.8817 12.2181 18.3183 13.1071 18.4951C13.9962 18.672 14.9178 18.5812 15.7553 18.2343C16.5928 17.8874 17.3086 17.2999 17.8122 16.5462C18.3158 15.7925 18.5846 14.9063 18.5846 13.9998C18.5824 12.7849 18.0988 11.6204 17.2398 10.7614C16.3807 9.9023 15.2162 9.41871 14.0013 9.4165ZM14.0013 16.9165C13.4244 16.9165 12.8605 16.7454 12.3809 16.425C11.9012 16.1045 11.5274 15.6489 11.3067 15.116C11.0859 14.583 11.0281 13.9966 11.1407 13.4308C11.2532 12.865 11.531 12.3453 11.9389 11.9374C12.3468 11.5295 12.8665 11.2518 13.4323 11.1392C13.9981 11.0267 14.5845 11.0844 15.1175 11.3052C15.6504 11.5259 16.1059 11.8998 16.4264 12.3794C16.7469 12.8591 16.918 13.423 16.918 13.9998C16.918 14.7734 16.6107 15.5153 16.0637 16.0622C15.5167 16.6092 14.7749 16.9165 14.0013 16.9165ZM14.0013 19.8332C13.7803 19.8332 13.5683 19.921 13.412 20.0772C13.2558 20.2335 13.168 20.4455 13.168 20.6665V21.4998C13.168 21.7209 13.2558 21.9328 13.412 22.0891C13.5683 22.2454 13.7803 22.3332 14.0013 22.3332C14.2223 22.3332 14.4343 22.2454 14.5906 22.0891C14.7468 21.9328 14.8346 21.7209 14.8346 21.4998V20.6665C14.8346 20.4455 14.7468 20.2335 14.5906 20.0772C14.4343 19.921 14.2223 19.8332 14.0013 19.8332Z" fill="white"/>
</svg>
