<svg width="50" height="50" viewBox="0 0 50 50" fill="none" xmlns="http://www.w3.org/2000/svg">
<path d="M18.7493 27.0837C23.3517 27.0837 27.0827 23.3527 27.0827 18.7503C27.0827 14.148 23.3517 10.417 18.7493 10.417C14.147 10.417 10.416 14.148 10.416 18.7503C10.416 23.3527 14.147 27.0837 18.7493 27.0837Z" stroke="#475568" stroke-width="3" stroke-linecap="round" stroke-linejoin="round"/>
<path d="M33.3327 39.5837C33.3327 32.6795 26.8035 27.0837 18.7493 27.0837C10.6952 27.0837 4.16602 32.6795 4.16602 39.5837M31.2493 27.0837C32.6418 27.0836 34.0121 26.7346 35.2349 26.0685C36.4578 25.4025 37.4942 24.4406 38.2496 23.2708C39.0049 22.101 39.4551 20.7606 39.559 19.372C39.6629 17.9834 39.4172 16.5909 38.8443 15.3218C38.2714 14.0526 37.3896 12.9473 36.2794 12.1067C35.1693 11.2661 33.8662 10.7171 32.4893 10.5098C31.1123 10.3026 29.7054 10.4436 28.397 10.9202C27.0886 11.3967 25.9205 12.1936 24.9993 13.2378" stroke="#475568" stroke-width="3" stroke-linecap="round" stroke-linejoin="round"/>
<path d="M45.8333 39.5837C45.8333 32.6795 39.3042 27.0837 31.25 27.0837C29.5688 27.0837 26.8688 26.4732 25 24.5107" stroke="#475568" stroke-width="3" stroke-linecap="round" stroke-linejoin="round"/>
</svg>
