<svg width="56" height="56" viewBox="0 0 56 56" fill="none" xmlns="http://www.w3.org/2000/svg">
<path d="M20.999 11.3669C26.3193 11.3669 30.6326 15.6795 30.6328 20.9997C30.6328 26.32 26.3194 30.6335 20.999 30.6335C15.6788 30.6333 11.3662 26.3199 11.3662 20.9997C11.3664 15.6796 15.6789 11.367 20.999 11.3669Z" fill="#64748A" stroke="#64748A" stroke-width="0.6" stroke-linecap="round" stroke-linejoin="round"/>
<path d="M37.3327 44.3333C37.3327 36.6007 30.02 30.3333 20.9993 30.3333C11.9787 30.3333 4.66602 36.6007 4.66602 44.3333M34.9993 30.3333C36.5589 30.3332 38.0936 29.9424 39.4632 29.1964C40.8328 28.4504 41.9936 27.3731 42.8396 26.0629C43.6856 24.7528 44.1898 23.2515 44.3062 21.6963C44.4225 20.1411 44.1473 18.5815 43.5056 17.16C42.864 15.7386 41.8764 14.5006 40.633 13.5591C39.3897 12.6176 37.9303 12.0028 36.3881 11.7706C34.8459 11.5385 33.2701 11.6965 31.8047 12.2302C30.3393 12.764 29.031 13.6564 27.9993 14.826" stroke="#64748A" stroke-width="3" stroke-linecap="round" stroke-linejoin="round"/>
<path d="M51.3333 44.3333C51.3333 36.6007 44.0207 30.3333 35 30.3333C33.117 30.3333 30.093 29.6497 28 27.4517" stroke="#64748A" stroke-width="3" stroke-linecap="round" stroke-linejoin="round"/>
</svg>
